<?xml version="1.0" encoding="UTF-8" standalone="no"?>
<!-- Created with Inkscape (http://www.inkscape.org/) -->

<svg
   xmlns:dc="http://purl.org/dc/elements/1.1/"
   xmlns:cc="http://creativecommons.org/ns#"
   xmlns:rdf="http://www.w3.org/1999/02/22-rdf-syntax-ns#"
   xmlns:svg="http://www.w3.org/2000/svg"
   xmlns="http://www.w3.org/2000/svg"
   xmlns:sodipodi="http://sodipodi.sourceforge.net/DTD/sodipodi-0.dtd"
   xmlns:inkscape="http://www.inkscape.org/namespaces/inkscape"
   width="484.79083"
   height="781.9375"
   id="svg2942"
   version="1.1"
   inkscape:version="0.48.3.1 r9886"
   inkscape:export-filename="/home/kd/Рабочий стол/log.pgn.png"
   inkscape:export-xdpi="90"
   inkscape:export-ydpi="90"
   sodipodi:docname="logo.svg">
  <defs
     id="defs2944">
    <inkscape:perspective
       sodipodi:type="inkscape:persp3d"
       inkscape:vp_x="0 : 526.18109 : 1"
       inkscape:vp_y="0 : 1000 : 0"
       inkscape:vp_z="744.09448 : 526.18109 : 1"
       inkscape:persp3d-origin="372.04724 : 350.78739 : 1"
       id="perspective2950" />
    <inkscape:perspective
       id="perspective2932"
       inkscape:persp3d-origin="0.5 : 0.33333333 : 1"
       inkscape:vp_z="1 : 0.5 : 1"
       inkscape:vp_y="0 : 1000 : 0"
       inkscape:vp_x="0 : 0.5 : 1"
       sodipodi:type="inkscape:persp3d" />
  </defs>
  <sodipodi:namedview
     id="base"
     pagecolor="#ffffff"
     bordercolor="#666666"
     borderopacity="1.0"
     inkscape:pageopacity="0"
     inkscape:pageshadow="2"
     inkscape:zoom="0.35"
     inkscape:cx="234.8221"
     inkscape:cy="389.54407"
     inkscape:document-units="mm"
     inkscape:current-layer="layer1"
     showgrid="false"
     inkscape:window-width="1024"
     inkscape:window-height="576"
     inkscape:window-x="0"
     inkscape:window-y="24"
     inkscape:window-maximized="1"
     units="mm"
     fit-margin-left="-0.5"
     fit-margin-top="0"
     fit-margin-right="0"
     fit-margin-bottom="0" />
  <metadata
     id="metadata2947">
    <rdf:RDF>
      <cc:Work
         rdf:about="">
        <dc:format>image/svg+xml</dc:format>
        <dc:type
           rdf:resource="http://purl.org/dc/dcmitype/StillImage" />
        <dc:title />
      </cc:Work>
    </rdf:RDF>
  </metadata>
  <g
     inkscape:label="Layer 1"
     inkscape:groupmode="layer"
     id="layer1"
     transform="translate(-140.1779,-139.96875)">
    <path
       style="fill:#9d332b;fill-rule:evenodd"
       d="m 138.40625,139.96875 0,781.9375 486.5625,0 0,-781.9375 -486.5625,0 z m 69.875,71.1875 344.15625,0 0,199.125 -73.84375,0 0,-125.28125 -196.46875,0 0,125.28125 -73.84375,0 0,-199.125 z m 134.5,130.5625 72.53125,0 0,71.1875 -72.53125,0 0,-71.1875 z m -135.8125,93.625 345.46875,0 0,67.25 -127.90625,0 0,89.65625 127.90625,257.125 -80.4375,0 -90.96875,-189.875 -91,189.875 -81.75,0 L 337.5,592.25 l 0,-89.65625 -130.53125,0 0,-67.25 z m 1.3125,92.28125 73.84375,0 0,116.0625 -73.84375,145.03125 0,-261.09375 z m 270.3125,0 73.84375,0 0,258.46875 -73.84375,-145.0625 0,-113.40625 z M 352,780.8125 l 58.03125,0 31.65625,68.5625 -120,0 L 352,780.8125 z"
       id="path27"
       inkscape:connector-curvature="0" />
  </g>
</svg>
